<svg width="36" height="32" viewBox="0 0 36 32" fill="none" xmlns="http://www.w3.org/2000/svg">
<g id="hostevents">
<path id="Vector" d="M1 8.82608H34.913" stroke="#1C274C" stroke-width="1.5" stroke-miterlimit="10" stroke-linecap="round" stroke-linejoin="round"/>
<path id="Vector_2" d="M25.7828 27.087C28.9132 27.087 31.6523 28.6522 33.2176 31C34.261 29.5652 34.9132 27.7391 34.9132 25.7826C34.9132 20.6957 30.8697 16.6522 25.7828 16.6522C20.6958 16.6522 16.6523 20.6957 16.6523 25.7826C16.6523 27.7391 17.3045 29.5652 18.348 31C19.9132 28.6522 22.6523 27.087 25.7828 27.087Z" stroke="#1C274C" stroke-width="1.5" stroke-miterlimit="10" stroke-linecap="round" stroke-linejoin="round"/>
<path id="Vector_3" d="M34.913 10.1304V1H1V29.6957H16.6522" stroke="#1C274C" stroke-width="1.5" stroke-miterlimit="10" stroke-linecap="round" stroke-linejoin="round"/>
<path id="Vector_4" d="M25.7827 27.087L29.6958 21.8696" stroke="#1C274C" stroke-width="1.5" stroke-miterlimit="10" stroke-linecap="round" stroke-linejoin="round"/>
<path id="Vector_5" d="M34.9131 25.7826V8.82608" stroke="#1C274C" stroke-width="1.5" stroke-miterlimit="10" stroke-linecap="round" stroke-linejoin="round"/>
<path id="Vector_6" d="M6.21729 14.0435H12.739" stroke="#1C274C" stroke-width="1.5" stroke-miterlimit="10" stroke-linecap="round" stroke-linejoin="round"/>
<path id="Vector_7" d="M6.21729 23.1739H8.82598" stroke="#1C274C" stroke-width="1.5" stroke-miterlimit="10" stroke-linecap="round" stroke-linejoin="round"/>
</g>
</svg>
