<svg width="25" height="25" viewBox="0 0 25 25" fill="none" xmlns="http://www.w3.org/2000/svg">
<g id="logout">
<path id="Vector" d="M9.07543 25C10.6655 25 11.9474 25 12.9554 24.8645C14.0021 24.7238 14.8834 24.4228 15.5833 23.7228C16.1937 23.1125 16.5021 22.3624 16.664 21.481C16.8213 20.6245 16.8514 19.5764 16.8584 18.3188C16.8611 17.8372 16.4728 17.4446 15.9912 17.4419C15.5095 17.4392 15.1169 17.8275 15.1142 18.3091C15.1071 19.5806 15.0741 20.4819 14.9485 21.1659C14.8274 21.825 14.633 22.2064 14.35 22.4895C14.0281 22.8113 13.5762 23.0212 12.7231 23.1359C11.8447 23.254 10.6807 23.2558 9.01159 23.2558L7.8488 23.2558C6.17973 23.2558 5.01567 23.254 4.13729 23.1359C3.28404 23.0212 2.83229 22.8113 2.51043 22.4895C2.18857 22.1677 1.9788 21.7159 1.86404 20.8626C1.74602 19.9843 1.74415 18.8202 1.74415 17.1512L1.74416 7.84884C1.74416 6.17977 1.74602 5.0157 1.86404 4.13732C1.97881 3.28407 2.18857 2.83233 2.51044 2.51046C2.8323 2.18861 3.28404 1.97884 4.13729 1.86407C5.01567 1.74605 6.17974 1.74419 7.84881 1.74419L9.0116 1.74419C10.6807 1.74419 11.8447 1.74605 12.7231 1.86407C13.5762 1.97884 14.0281 2.18861 14.35 2.51047C14.633 2.79361 14.8274 3.175 14.9485 3.83407C15.0741 4.51814 15.1071 5.41942 15.1142 6.69093C15.1169 7.17256 15.5095 7.56081 15.9912 7.55814C16.4728 7.55546 16.8611 7.16279 16.8584 6.68116C16.8514 5.4236 16.8213 4.37547 16.664 3.51907C16.5021 2.63767 16.1937 1.88756 15.5833 1.2771C14.8834 0.577211 14.0021 0.276165 12.9554 0.135467C11.9474 1.47802e-06 10.6656 -5.41396e-07 9.07543 -6.80409e-07L7.78497 -7.93225e-07C6.19474 -9.32247e-07 4.91299 8.63048e-07 3.90485 0.135466C2.85823 0.276164 1.97706 0.57721 1.27706 1.27709C0.577181 1.97709 0.276135 2.85826 0.135437 3.90488C-0.00014511 4.91302 -3.07809e-05 6.19477 -3.09199e-05 7.785L-3.17443e-05 17.215C-3.18834e-05 18.8052 -0.000146436 20.087 0.135435 21.0951C0.276133 22.1417 0.577179 23.0229 1.27706 23.7228C1.97706 24.4228 2.85822 24.7238 3.90485 24.8645C4.91299 25 6.19474 25 7.78497 25L9.07543 25Z" fill="#585858"/>
<path id="Vector_2" d="M9.01163 13.3721C8.53 13.3721 8.13954 12.9816 8.13954 12.5C8.13954 12.0184 8.53 11.6279 9.01163 11.6279L21.7704 11.6279L19.4906 9.67371C19.1249 9.36034 19.0825 8.80976 19.396 8.44406C19.7094 8.07836 20.26 8.03604 20.6257 8.34953L24.6955 11.8379C24.8888 12.0035 25 12.2455 25 12.5C25 12.7545 24.8888 12.9965 24.6955 13.1621L20.6257 16.6505C20.26 16.964 19.7094 16.9216 19.396 16.5559C19.0825 16.1902 19.1249 15.6397 19.4906 15.3262L21.7704 13.3721L9.01163 13.3721Z" fill="#585858"/>
</g>
</svg>
