<svg width="31" height="25" viewBox="0 0 31 25" fill="none" xmlns="http://www.w3.org/2000/svg">
<path id="lp" d="M27.8846 0H2.88462C1.29135 0 0 1.29135 0 2.88462V18.2692C0 19.8625 1.29135 21.1538 2.88462 21.1538H11.5385V24.0385H10.0962C9.83077 24.0385 9.61538 24.2538 9.61538 24.5192C9.61538 24.7846 9.83077 25 10.0962 25H20.6731C20.9385 25 21.1538 24.7846 21.1538 24.5192C21.1538 24.2538 20.9385 24.0385 20.6731 24.0385H19.2308V21.1538H27.8846C29.4779 21.1538 30.7692 19.8625 30.7692 18.2692V2.88462C30.7692 1.29135 29.4779 0 27.8846 0ZM18.2692 24.0385H12.5V21.1538H18.2692V24.0385ZM29.8077 18.2692C29.8077 19.3317 28.9471 20.1923 27.8846 20.1923H2.88462C1.82212 20.1923 0.961538 19.3317 0.961538 18.2692V2.88462C0.961538 1.82212 1.82212 0.961538 2.88462 0.961538H27.8846C28.9471 0.961538 29.8077 1.82212 29.8077 2.88462V18.2692ZM24.8125 4.83654C24.0606 4.68846 23.3942 5.125 23.1654 5.76923H17.3077V4.80769H13.4615V5.76923H7.60385C7.375 5.125 6.70769 4.68846 5.95673 4.83654C5.40577 4.94519 4.95673 5.38654 4.84135 5.93654C4.64423 6.87019 5.35096 7.69231 6.25 7.69231C6.87692 7.69231 7.40577 7.28942 7.60385 6.73077H13.4615V6.94615C9.24231 7.80865 6.01442 11.425 5.78269 15.8365C5.76827 16.1125 5.9875 16.3462 6.26442 16.3462C6.51731 16.3462 6.72981 16.15 6.74231 15.8971C6.94327 11.9885 9.75577 8.77212 13.4615 7.92692V8.65385H17.3077V7.92596C21.0135 8.77211 23.826 11.9885 24.0269 15.8962C24.0404 16.15 24.2519 16.3462 24.5048 16.3462C24.7817 16.3462 25.001 16.1125 24.9865 15.8365C24.7548 11.425 21.5269 7.80865 17.3077 6.94615V6.73077H23.1654C23.3644 7.28942 23.8923 7.69231 24.5192 7.69231C25.4183 7.69231 26.125 6.87019 25.9288 5.93654C25.8125 5.38654 25.3635 4.94519 24.8125 4.83654ZM6.25 6.73077C5.98462 6.73077 5.76923 6.51538 5.76923 6.25C5.76923 5.98462 5.98462 5.76923 6.25 5.76923C6.51538 5.76923 6.73077 5.98462 6.73077 6.25C6.73077 6.51538 6.51538 6.73077 6.25 6.73077ZM16.3462 7.69231H14.4231V5.76923H16.3462V7.69231ZM24.5192 6.73077C24.2538 6.73077 24.0385 6.51538 24.0385 6.25C24.0385 5.98462 24.2538 5.76923 24.5192 5.76923C24.7846 5.76923 25 5.98462 25 6.25C25 6.51538 24.7846 6.73077 24.5192 6.73077Z" fill="#0B1719"/>
</svg>
