<svg width="24" height="25" viewBox="0 0 24 25" fill="none" xmlns="http://www.w3.org/2000/svg">
<g id="portal">
<path id="Vector" d="M23.6089 1.33036H12.0408V0.236359C12.0408 0.10805 11.9327 0 11.8044 0C11.6761 0 11.5681 0.10805 11.5681 0.236359V1.33036H0V4.37601H0.553755L0.540249 18.7466H7.77283L6.59778 25H7.76607L9.62993 18.7466H10.9063L11.2237 22.8998H12.3649L12.6823 18.7466H13.9654L15.8293 25H16.9976L15.8225 18.7466H23.0551V4.37601H23.6089V1.33036ZM7.41491 24.5273H7.1718L8.25905 18.7466H9.13695L7.41491 24.5273ZM11.9327 22.4338H11.6626L11.379 18.7534H12.2096L11.9327 22.4338ZM16.4303 24.5273H16.1872L14.4652 18.7466H15.3431L16.4303 24.5273ZM22.1097 17.8012H1.48568L1.49919 4.37601H22.1097V17.8012ZM0.945435 2.2758H22.6634V3.43058H0.945435V2.2758Z" fill="#232020" fill-opacity="0.5"/>
<path id="Vector_2" d="M19.9082 6.34793H20.7591C20.8874 6.34793 20.9955 6.23988 20.9955 6.11157C20.9955 5.98326 20.8874 5.87521 20.7591 5.87521H19.9082C19.7799 5.87521 19.6719 5.98326 19.6719 6.11157C19.6719 6.23988 19.7799 6.34793 19.9082 6.34793Z" fill="#232020" fill-opacity="0.5"/>
<path id="Vector_3" d="M12.689 6.34793H18.6993C18.8276 6.34793 18.9356 6.23988 18.9356 6.11157C18.9356 5.98326 18.8276 5.87521 18.6993 5.87521H12.689C12.5607 5.87521 12.4526 5.98326 12.4526 6.11157C12.4526 6.23988 12.5607 6.34793 12.689 6.34793Z" fill="#232020" fill-opacity="0.5"/>
<path id="Vector_4" d="M12.689 7.17856H20.759C20.8873 7.17856 20.9953 7.07051 20.9953 6.9422C20.9953 6.81389 20.8873 6.70584 20.759 6.70584H12.689C12.5607 6.70584 12.4526 6.81389 12.4526 6.9422C12.4526 7.07051 12.5607 7.17856 12.689 7.17856Z" fill="#232020" fill-opacity="0.5"/>
<path id="Vector_5" d="M20.759 7.53647H16.0723C15.944 7.53647 15.8359 7.64452 15.8359 7.77283C15.8359 7.90114 15.944 8.00919 16.0723 8.00919H20.759C20.8873 8.00919 20.9953 7.90114 20.9953 7.77283C20.9953 7.64452 20.8873 7.53647 20.759 7.53647Z" fill="#232020" fill-opacity="0.5"/>
<path id="Vector_6" d="M12.689 8.00919H15.1471C15.2754 8.00919 15.3835 7.90114 15.3835 7.77283C15.3835 7.64452 15.2754 7.53647 15.1471 7.53647H12.689C12.5607 7.53647 12.4526 7.64452 12.4526 7.77283C12.4526 7.90114 12.5607 8.00919 12.689 8.00919Z" fill="#232020" fill-opacity="0.5"/>
<path id="Vector_7" d="M12.689 8.83981H20.759C20.8873 8.83981 20.9953 8.73176 20.9953 8.60345C20.9953 8.47515 20.8873 8.3671 20.759 8.3671H12.689C12.5607 8.3671 12.4526 8.47515 12.4526 8.60345C12.4526 8.73176 12.5607 8.83981 12.689 8.83981Z" fill="#232020" fill-opacity="0.5"/>
<path id="Vector_8" d="M20.7589 9.19772H19.773C19.6447 9.19772 19.5366 9.30577 19.5366 9.43408C19.5366 9.56239 19.6447 9.67044 19.773 9.67044H20.7589C20.8872 9.67044 20.9953 9.56239 20.9953 9.43408C20.9953 9.30577 20.8872 9.19772 20.7589 9.19772Z" fill="#232020" fill-opacity="0.5"/>
<path id="Vector_9" d="M12.689 9.67044H18.5912C18.7195 9.67044 18.8276 9.56239 18.8276 9.43408C18.8276 9.30577 18.7195 9.19772 18.5912 9.19772H12.689C12.5607 9.19772 12.4526 9.30577 12.4526 9.43408C12.4526 9.56239 12.5607 9.67044 12.689 9.67044Z" fill="#232020" fill-opacity="0.5"/>
<path id="Vector_10" d="M12.689 10.4943H20.759C20.8873 10.4943 20.9953 10.3863 20.9953 10.258C20.9953 10.1297 20.8873 10.0216 20.759 10.0216H12.689C12.5607 10.0216 12.4526 10.1297 12.4526 10.258C12.4526 10.3863 12.5607 10.4943 12.689 10.4943Z" fill="#232020" fill-opacity="0.5"/>
<path id="Vector_11" d="M12.689 11.325H19.5434C19.6717 11.325 19.7798 11.2169 19.7798 11.0886C19.7798 10.9603 19.6717 10.8522 19.5434 10.8522H12.689C12.5607 10.8522 12.4526 10.9603 12.4526 11.0886C12.4526 11.2169 12.5607 11.325 12.689 11.325Z" fill="#232020" fill-opacity="0.5"/>
<path id="Vector_12" d="M20.9953 12.3447H12.4526V16.0251H20.9953V12.3447ZM20.5226 15.5524H12.9254V12.8174H20.5226V15.5524Z" fill="#232020" fill-opacity="0.5"/>
<path id="Vector_13" d="M6.61138 14.8096C8.63056 14.8096 10.2716 13.1686 10.2716 11.1494V10.913H6.87475L7.24617 7.53648L7.00981 7.50271C6.87475 7.48921 6.73969 7.48245 6.61138 7.48245C4.5922 7.48245 2.95119 9.12346 2.95119 11.1426C2.94444 13.1618 4.5922 14.8096 6.61138 14.8096ZM6.61138 7.95517C6.6519 7.95517 6.68566 7.95517 6.72618 7.95517L6.348 11.379H9.79209C9.67053 13.0268 8.2929 14.3301 6.61138 14.3301C4.85557 14.3301 3.42391 12.8984 3.42391 11.1426C3.41716 9.38683 4.84882 7.95517 6.61138 7.95517Z" fill="#232020" fill-opacity="0.5"/>
<path id="Vector_14" d="M11.0144 9.94058L10.9671 9.71098C10.832 9.06943 10.5214 8.48191 10.0824 8.00244C9.63673 7.52297 9.07622 7.17181 8.44819 6.98272L8.22533 6.91519L7.05029 10.805L11.0144 9.94058ZM8.52922 7.50271C8.98168 7.67829 9.39362 7.95517 9.72452 8.31984C10.0554 8.67775 10.2985 9.10995 10.4404 9.58267L7.7256 10.1702L8.52922 7.50271Z" fill="#232020" fill-opacity="0.5"/>
</g>
</svg>
