<svg width="20" height="20" viewBox="0 0 20 20" fill="none" xmlns="http://www.w3.org/2000/svg">
<path id="search" fill-rule="evenodd" clip-rule="evenodd" d="M14.5811 13.2949C15.7013 11.8945 16.3711 10.1183 16.3711 8.18554C16.3711 3.66479 12.7063 0 8.18554 0C3.66479 0 0 3.66479 0 8.18554C0 12.7063 3.66479 16.3711 8.18554 16.3711C10.1183 16.3711 11.8945 15.7013 13.2949 14.5811L18.4473 19.7336C18.8025 20.0888 19.3784 20.0888 19.7336 19.7336C20.0888 19.3784 20.0888 18.8025 19.7336 18.4473L14.5811 13.2949ZM8.18554 14.5612C4.66436 14.5612 1.80988 11.7067 1.80988 8.18554C1.80988 4.66436 4.66436 1.80988 8.18554 1.80988C11.7067 1.80988 14.5612 4.66436 14.5612 8.18554C14.5612 11.7067 11.7067 14.5612 8.18554 14.5612Z" fill="#B0B0B0"/>
</svg>
