<svg width="24" height="25" viewBox="0 0 24 25" fill="none" xmlns="http://www.w3.org/2000/svg">
<g id="settings">
<path id="Vector" fill-rule="evenodd" clip-rule="evenodd" d="M11.9567 8.15218C9.55548 8.15218 7.60889 10.0988 7.60889 12.5C7.60889 14.9012 9.55548 16.8478 11.9567 16.8478C14.358 16.8478 16.3045 14.9012 16.3045 12.5C16.3045 10.0988 14.358 8.15218 11.9567 8.15218ZM9.78276 12.5C9.78276 11.2993 10.7561 10.3261 11.9567 10.3261C13.1573 10.3261 14.1306 11.2993 14.1306 12.5C14.1306 13.7007 13.1573 14.6739 11.9567 14.6739C10.7561 14.6739 9.78276 13.7007 9.78276 12.5Z" fill="#585858"/>
<path id="Vector_2" fill-rule="evenodd" clip-rule="evenodd" d="M11.1812 0C9.65851 0 8.31098 1.05158 8.01273 2.56092L7.92678 2.99589C7.72271 4.02867 6.58908 4.70716 5.48381 4.33492L5.05244 4.18964C3.61137 3.7043 1.99862 4.27139 1.21561 5.58623L0.44013 6.88842C-0.350294 8.21572 -0.0496213 9.8966 1.12964 10.885L1.47515 11.1746C2.31455 11.8782 2.31455 13.1218 1.47515 13.8254L1.12964 14.115C-0.0496213 15.1034 -0.350294 16.7842 0.44013 18.1115L1.21558 19.4137C1.99861 20.7286 3.61141 21.2957 5.05251 20.8103L5.48376 20.665C6.58903 20.2927 7.72272 20.9712 7.92678 22.004L8.01274 22.439C8.31098 23.9484 9.65852 25 11.1812 25H12.7322C14.255 25 15.6025 23.9484 15.9008 22.4389L15.9866 22.0041C16.1907 20.9713 17.3243 20.2927 18.4297 20.665L18.861 20.8103C20.3021 21.2957 21.9149 20.7286 22.6979 19.4137L23.4734 18.1116C24.2638 16.7843 23.963 15.1034 22.7838 14.115L22.4383 13.8254C21.5988 13.122 21.5988 11.878 22.4383 11.1746L22.7838 10.885C23.963 9.89662 24.2638 8.21571 23.4734 6.88839L22.6979 5.58622C21.9149 4.27139 20.3022 3.70429 18.8611 4.18961L18.4296 4.33493C17.3243 4.70716 16.1907 4.02863 15.9866 2.99584L15.9008 2.56104C15.6025 1.05164 14.255 0 12.7322 0H11.1812ZM10.1454 2.98234C10.2336 2.53624 10.6503 2.17391 11.1812 2.17391H12.7322C13.2632 2.17391 13.6799 2.53626 13.768 2.98237L13.8539 3.41716C14.3251 5.80229 16.8379 7.16486 19.1234 6.39514L19.5549 6.24983C20.0538 6.08181 20.5863 6.28908 20.8301 6.69852L21.6055 8.0007C21.842 8.39769 21.7617 8.90512 21.3874 9.21886L21.042 9.5084C19.1658 11.0808 19.1658 13.9192 21.042 15.4916L21.3874 15.7811C21.7617 16.0949 21.842 16.6023 21.6055 16.9993L20.8301 18.3014C20.5863 18.7109 20.0538 18.9182 19.5549 18.7501L19.1235 18.6048C16.8379 17.835 14.3251 19.1976 13.8539 21.5828L13.768 22.0176C13.6799 22.4637 13.2632 22.8261 12.7322 22.8261H11.1812C10.6503 22.8261 10.2336 22.4638 10.1454 22.0176L10.0595 21.5826C9.58818 19.1975 7.07534 17.835 4.78984 18.6049L4.35859 18.7501C3.8597 18.9182 3.32722 18.7109 3.08338 18.3014L2.30793 16.9992C2.07152 16.6023 2.15173 16.0949 2.52606 15.7811L2.87158 15.4915C4.74763 13.9191 4.74762 11.0809 2.87158 9.50847L2.52606 9.21888C2.15173 8.90514 2.07152 8.39772 2.30793 8.00073L3.08341 6.69854C3.32724 6.28909 3.85971 6.08183 4.35859 6.24985L4.78996 6.39513C7.07541 7.16485 9.58817 5.80238 10.0595 3.4173L10.1454 2.98234Z" fill="#585858"/>
</g>
</svg>
